<?xml version="1.0" encoding="utf-8"?>
<!-- Generator: Adobe Illustrator 23.0.3, SVG Export Plug-In . SVG Version: 6.00 Build 0)  -->
<svg version="1.1" id="Layer_1" xmlns="http://www.w3.org/2000/svg" xmlns:xlink="http://www.w3.org/1999/xlink" x="0px" y="0px"
	 viewBox="0 0 1000 1000" style="enable-background:new 0 0 1000 1000;" xml:space="preserve">
<style type="text/css">
	.st0{fill:#898989;}
	.st1{fill:none;}
	.st2{fill:#FFFFFF;}
	.st3{font-family:'ArialMT';}
	.st4{font-size:45px;}
	.st5{letter-spacing:15;}
	.st6{enable-background:new    ;}
	.st7{font-size:80px;}
</style>
<g id="Background">
	<g>
		<rect x="0.5" y="0.5" class="st0" width="999" height="999"/>
		<path d="M999,1v998H1V1H999 M1000,0H0v1000h1000V0L1000,0z"/>
	</g>
	<rect x="60.5" y="193.8" class="st1" width="885.5" height="462.6"/>
	<text transform="matrix(1 0 0 1 142.0693 387.7158)" class="st2 st3 st4 st5"> </text>
	<text transform="matrix(1 0 0 1 64.49 220.77)" class="st6"><tspan x="0" y="0" class="st2 st3 st4">I am an informatics student doing masters</tspan><tspan x="0" y="54" class="st2 st3 st4">from  Université Grenoble Alpes. My areas</tspan><tspan x="0" y="108" class="st2 st3 st4">of research are Graphics, Vision and</tspan><tspan x="0" y="162" class="st2 st3 st4">Robotics.</tspan><tspan x="0" y="270" class="st2 st3 st4">My motto in life is to &quot;Push yourself to</tspan><tspan x="0" y="324" class="st2 st3 st4">success or failure&quot; - give me something to </tspan><tspan x="0" y="378" class="st2 st3 st4">ail at and I will make some success out of it.</tspan><tspan x="0" y="486" class="st2 st3 st4">Apart from computer science, my hobbies </tspan><tspan x="0" y="540" class="st2 st3 st4">include Football, Chess(Please don&apos;t ask</tspan><tspan x="0" y="594" class="st2 st3 st4">my rating) and cooking.</tspan></text>
</g>
<g id="Text">
	<rect x="280.1" y="61.5" class="st1" width="439.9" height="90.4"/>
	<text transform="matrix(1 0 0 1 326.064 118.2886)" class="st2 st3 st7">About Me</text>
</g>
</svg>
